<?xml version="1.0" encoding="utf-8"?>
<!-- Generator: Adobe Illustrator 16.0.0, SVG Export Plug-In . SVG Version: 6.00 Build 0)  -->
<!DOCTYPE svg PUBLIC "-//W3C//DTD SVG 1.1//EN" "http://www.w3.org/Graphics/SVG/1.1/DTD/svg11.dtd">
<svg version="1.1" id="Capa_1" xmlns="http://www.w3.org/2000/svg" xmlns:xlink="http://www.w3.org/1999/xlink" x="0px" y="0px"
	 width="50px" height="50px" viewBox="0 0 50 50" enable-background="new 0 0 50 50" xml:space="preserve">
<g>
	<g>
		<path fill-rule="evenodd" clip-rule="evenodd" fill="#603813" d="M49.076,4.373 M16.341,3.631
			c5.438-0.023,10.872-0.029,16.306,0.006l16.429-0.024l-0.105,16.669c0.033,4.455,0.033,8.905,0,13.353
			c-0.011,2.204-0.032,4.415-0.567,6.572c-1.307,5.256-4.762,8.449-10.272,9.618c-2.142,0.461-4.335,0.473-6.516,0.496
			c-2.361,0.035-4.732,0.012-7.104,0.012c-2.37,0-4.741,0.023-7.112-0.012c-2.286-0.029-4.577-0.082-6.837-0.555
			c-5.317-1.11-9.17-4.981-10.088-10.103c-0.418-2.379-0.45-4.788-0.465-7.185c-0.012-4.479,0-8.951,0.047-13.43L0.006,3.62
			L16.341,3.631z M3.467,28.327c0,0-0.034,3.438,0.012,5.49c0.05,2.151,0,3.999,0.453,6.127c0.743,3.537,2.894,5.7,6.574,6.659
			c1.567,0.416,3.184,0.438,4.791,0.445c6.107,0.023,12.21-0.012,18.312-0.047c1.335-0.005,2.686-0.151,3.999-0.379
			c3.741-0.667,6.2-2.736,7.217-6.292c0.485-1.69,0.556-3.443,0.567-5.18c0.056-4.308,0.076-8.617,0.071-12.932l0.038-14.716
			L3.289,7.466L3.467,28.327z"/>
	</g>
	<g>
		<g>
			<path fill="#603813" d="M25.179,22.25c-0.002,0-0.009,0-0.011,0c-9.939,0-13.325-7.864-13.461-8.174
				c-0.205-0.452-0.004-1.204,0.45-1.405c0.453-0.21,0.977-0.117,1.187,0.333c0.123,0.269,3.09,6.509,11.848,6.623
				c0.498,0.006,0.892,0.828,0.885,1.325C26.071,21.442,25.67,22.25,25.179,22.25z"/>
		</g>
		<g>
			<path fill="#603813" d="M24.5,22.25c-0.491,0-0.892-0.837-0.897-1.327c-0.006-0.498,0.389-1.124,0.886-1.13
				c8.758-0.114,11.725-6.52,11.848-6.789c0.205-0.444,0.734-0.703,1.187-0.499c0.453,0.202,0.655,1.147,0.45,1.601
				c-0.137,0.31-3.522,8.145-13.462,8.145C24.509,22.25,24.503,22.25,24.5,22.25z"/>
		</g>
	</g>
	<g>
		<path fill-rule="evenodd" clip-rule="evenodd" fill="#603813" d="M12.492,15.038c-1.041-0.023-1.857-0.836-1.827-1.813
			c0.032-0.988,0.883-1.754,1.915-1.731c1.002,0.023,1.826,0.843,1.803,1.79C14.366,14.278,13.515,15.061,12.492,15.038z"/>
	</g>
	<g>
		<path fill-rule="evenodd" clip-rule="evenodd" fill="#603813" d="M37.124,15.038c-1.041-0.023-1.857-0.836-1.828-1.813
			c0.033-0.988,0.883-1.754,1.915-1.731c1.002,0.023,1.827,0.843,1.803,1.79C38.997,14.278,38.146,15.061,37.124,15.038z"/>
	</g>
</g>
</svg>
